<svg xmlns="http://www.w3.org/2000/svg" viewBox="0 0 48 48">
  <rect width="48" height="48" rx="10" fill="#0C1120"/>
  <g fill="none" stroke="#F2A93B" stroke-width="2.2">
    <path d="M12 15.5 9.8 9l6.5 3" stroke-linejoin="round"/>
    <path d="M36 15.5 38.2 9l-6.5 3" stroke-linejoin="round"/>
    <path d="M24 8c-8 0-12.6 5.9-12.6 13.9C11.4 31.6 16.9 38.3 24 40c7.1-1.7 12.6-8.4 12.6-18.1C36.6 13.9 32 8 24 8z"/>
    <circle cx="18.3" cy="21" r="3.9" stroke-width="2"/>
    <circle cx="29.7" cy="21" r="3.9" stroke-width="2"/>
  </g>
  <circle cx="18.3" cy="21" r="1.5" fill="#F2A93B"/>
  <circle cx="29.7" cy="21" r="1.5" fill="#F2A93B"/>
  <path d="M24 26.5 21.4 29.5h5.2L24 26.5z" fill="#F2A93B"/>
</svg>
